<svg id="SvgjsSvg1054" xmlns="http://www.w3.org/2000/svg" version="1.1" xmlns:xlink="http://www.w3.org/1999/xlink" xmlns:svgjs="http://svgjs.com/svgjs" width="44" height="44" viewBox="0 0 44 44"><title>icon</title><desc>Created with Avocode.</desc><defs id="SvgjsDefs1055"></defs><path id="SvgjsPath1056" d="M1169.25 4878C1168.83 4878 1168.4 4878.03 1167.98 4878.06C1167.83 4878.080000000001 1167.68 4878.1 1167.52 4878.120000000001C1167.27 4878.150000000001 1167.01 4878.1900000000005 1166.76 4878.240000000001C1166.57 4878.27 1166.3799999999999 4878.31 1166.2 4878.35C1165.99 4878.400000000001 1165.78 4878.46 1165.57 4878.51C1165.37 4878.570000000001 1165.1799999999998 4878.62 1164.98 4878.6900000000005C1164.81 4878.740000000001 1164.63 4878.81 1164.46 4878.88C1164 4879.05 1163.55 4879.24 1163.1200000000001 4879.46C1163.0300000000002 4879.5 1162.94 4879.54 1162.8600000000001 4879.59C1162.63 4879.71 1162.41 4879.84 1162.18 4879.9800000000005C1162.0600000000002 4880.05 1161.94 4880.120000000001 1161.8200000000002 4880.200000000001C1161.6000000000001 4880.340000000001 1161.4 4880.4800000000005 1161.19 4880.630000000001C1161.13 4880.680000000001 1161.06 4880.720000000001 1161 4880.760000000001C1158.62 4878.970000000001 1155.73 4878.000000000001 1152.75 4878.000000000001C1145.17 4878.000000000001 1139 4884.170000000001 1139 4891.750000000001C1139 4904.1900000000005 1147 4915.450000000001 1160.41 4921.860000000001C1160.5900000000001 4921.950000000001 1160.8000000000002 4922.000000000001 1161 4922.000000000001C1161.2 4922.000000000001 1161.41 4921.950000000001 1161.59 4921.860000000001C1175 4915.450000000001 1183 4904.1900000000005 1183 4891.750000000001C1183 4884.170000000001 1176.83 4878.000000000001 1169.25 4878.000000000001ZM1161 4919.1C1148.93 4913.110000000001 1141.75 4902.93 1141.75 4891.75C1141.75 4885.68 1146.68 4880.75 1152.75 4880.75C1154.97 4880.75 1157.12 4881.43 1158.94 4882.68C1156.81 4885.110000000001 1155.5 4888.280000000001 1155.5 4891.75C1155.5 4892.51 1156.11 4893.12 1156.88 4893.12C1157.64 4893.12 1158.25 4892.51 1158.25 4891.75C1158.25 4888.48 1159.7 4885.54 1161.97 4883.52C1162.18 4883.330000000001 1162.4 4883.160000000001 1162.63 4882.990000000001C1162.68 4882.950000000001 1162.73 4882.910000000001 1162.7800000000002 4882.870000000001C1163.0000000000002 4882.710000000001 1163.2200000000003 4882.56 1163.4500000000003 4882.420000000001C1163.5100000000002 4882.380000000001 1163.5800000000004 4882.340000000001 1163.6400000000003 4882.300000000001C1163.8600000000004 4882.170000000001 1164.0900000000004 4882.050000000001 1164.3200000000004 4881.930000000001C1164.4000000000003 4881.890000000001 1164.4800000000005 4881.850000000001 1164.5600000000004 4881.810000000001C1164.7800000000004 4881.710000000001 1165.0100000000004 4881.6100000000015 1165.2300000000005 4881.520000000001C1165.3300000000004 4881.480000000001 1165.4300000000005 4881.450000000002 1165.5400000000004 4881.410000000002C1165.7500000000005 4881.330000000002 1165.9700000000005 4881.260000000002 1166.1800000000005 4881.200000000002C1166.3200000000006 4881.160000000002 1166.4400000000005 4881.120000000002 1166.5800000000006 4881.090000000002C1166.7800000000007 4881.040000000002 1166.9700000000007 4880.990000000002 1167.1700000000005 4880.950000000002C1167.3500000000006 4880.920000000002 1167.5400000000004 4880.9000000000015 1167.7200000000005 4880.870000000002C1167.8700000000006 4880.850000000001 1168.0300000000004 4880.8200000000015 1168.1900000000005 4880.800000000002C1168.5400000000004 4880.770000000002 1168.8900000000006 4880.750000000002 1169.2500000000005 4880.750000000002C1175.3200000000004 4880.750000000002 1180.2500000000005 4885.680000000002 1180.2500000000005 4891.750000000002C1180.2500000000005 4902.930000000002 1173.0700000000004 4913.1100000000015 1161.0000000000005 4919.100000000002ZM1177.5 4891.75C1177.5 4892.51 1176.88 4893.12 1176.12 4893.12C1175.36 4893.12 1174.75 4892.51 1174.75 4891.75C1174.75 4888.72 1172.28 4886.25 1169.25 4886.25C1168.49 4886.25 1167.87 4885.63 1167.87 4884.87C1167.87 4884.12 1168.4899999999998 4883.5 1169.25 4883.5C1173.8 4883.5 1177.5 4887.2 1177.5 4891.75Z " fill="#000000" fill-opacity="1" transform="matrix(1,0,0,1,-1139,-4878)"></path><path id="SvgjsPath1057" d="M1169.25 4878C1168.83 4878 1168.4 4878.03 1167.98 4878.06C1167.83 4878.080000000001 1167.68 4878.1 1167.52 4878.120000000001C1167.27 4878.150000000001 1167.01 4878.1900000000005 1166.76 4878.240000000001C1166.57 4878.27 1166.3799999999999 4878.31 1166.2 4878.35C1165.99 4878.400000000001 1165.78 4878.46 1165.57 4878.51C1165.37 4878.570000000001 1165.1799999999998 4878.62 1164.98 4878.6900000000005C1164.81 4878.740000000001 1164.63 4878.81 1164.46 4878.88C1164 4879.05 1163.55 4879.24 1163.1200000000001 4879.46C1163.0300000000002 4879.5 1162.94 4879.54 1162.8600000000001 4879.59C1162.63 4879.71 1162.41 4879.84 1162.18 4879.9800000000005C1162.0600000000002 4880.05 1161.94 4880.120000000001 1161.8200000000002 4880.200000000001C1161.6000000000001 4880.340000000001 1161.4 4880.4800000000005 1161.19 4880.630000000001C1161.13 4880.680000000001 1161.06 4880.720000000001 1161 4880.760000000001C1158.62 4878.970000000001 1155.73 4878.000000000001 1152.75 4878.000000000001C1145.17 4878.000000000001 1139 4884.170000000001 1139 4891.750000000001C1139 4904.1900000000005 1147 4915.450000000001 1160.41 4921.860000000001C1160.5900000000001 4921.950000000001 1160.8000000000002 4922.000000000001 1161 4922.000000000001C1161.2 4922.000000000001 1161.41 4921.950000000001 1161.59 4921.860000000001C1175 4915.450000000001 1183 4904.1900000000005 1183 4891.750000000001C1183 4884.170000000001 1176.83 4878.000000000001 1169.25 4878.000000000001ZM1161 4919.1C1148.93 4913.110000000001 1141.75 4902.93 1141.75 4891.75C1141.75 4885.68 1146.68 4880.75 1152.75 4880.75C1154.97 4880.75 1157.12 4881.43 1158.94 4882.68C1156.81 4885.110000000001 1155.5 4888.280000000001 1155.5 4891.75C1155.5 4892.51 1156.11 4893.12 1156.88 4893.12C1157.64 4893.12 1158.25 4892.51 1158.25 4891.75C1158.25 4888.48 1159.7 4885.54 1161.97 4883.52C1162.18 4883.330000000001 1162.4 4883.160000000001 1162.63 4882.990000000001C1162.68 4882.950000000001 1162.73 4882.910000000001 1162.7800000000002 4882.870000000001C1163.0000000000002 4882.710000000001 1163.2200000000003 4882.56 1163.4500000000003 4882.420000000001C1163.5100000000002 4882.380000000001 1163.5800000000004 4882.340000000001 1163.6400000000003 4882.300000000001C1163.8600000000004 4882.170000000001 1164.0900000000004 4882.050000000001 1164.3200000000004 4881.930000000001C1164.4000000000003 4881.890000000001 1164.4800000000005 4881.850000000001 1164.5600000000004 4881.810000000001C1164.7800000000004 4881.710000000001 1165.0100000000004 4881.6100000000015 1165.2300000000005 4881.520000000001C1165.3300000000004 4881.480000000001 1165.4300000000005 4881.450000000002 1165.5400000000004 4881.410000000002C1165.7500000000005 4881.330000000002 1165.9700000000005 4881.260000000002 1166.1800000000005 4881.200000000002C1166.3200000000006 4881.160000000002 1166.4400000000005 4881.120000000002 1166.5800000000006 4881.090000000002C1166.7800000000007 4881.040000000002 1166.9700000000007 4880.990000000002 1167.1700000000005 4880.950000000002C1167.3500000000006 4880.920000000002 1167.5400000000004 4880.9000000000015 1167.7200000000005 4880.870000000002C1167.8700000000006 4880.850000000001 1168.0300000000004 4880.8200000000015 1168.1900000000005 4880.800000000002C1168.5400000000004 4880.770000000002 1168.8900000000006 4880.750000000002 1169.2500000000005 4880.750000000002C1175.3200000000004 4880.750000000002 1180.2500000000005 4885.680000000002 1180.2500000000005 4891.750000000002C1180.2500000000005 4902.930000000002 1173.0700000000004 4913.1100000000015 1161.0000000000005 4919.100000000002ZM1177.5 4891.75C1177.5 4892.51 1176.88 4893.12 1176.12 4893.12C1175.36 4893.12 1174.75 4892.51 1174.75 4891.75C1174.75 4888.72 1172.28 4886.25 1169.25 4886.25C1168.49 4886.25 1167.87 4885.63 1167.87 4884.87C1167.87 4884.12 1168.4899999999998 4883.5 1169.25 4883.5C1173.8 4883.5 1177.5 4887.2 1177.5 4891.75Z " fill="#c7b299" fill-opacity="1" transform="matrix(1,0,0,1,-1139,-4878)"></path></svg>