<svg id="SvgjsSvg1046" xmlns="http://www.w3.org/2000/svg" version="1.1" xmlns:xlink="http://www.w3.org/1999/xlink" xmlns:svgjs="http://svgjs.com/svgjs" width="48" height="44" viewBox="0 0 48 44"><title>icon</title><desc>Created with Avocode.</desc><defs id="SvgjsDefs1047"></defs><path id="SvgjsPath1048" d="M784 4897.61L784 4900.009999999999C784 4903.449999999999 781.239 4906.249999999999 777.846 4906.249999999999L775.091 4906.249999999999C773.221 4911.5199999999995 768.24 4915.299999999999 762.405 4915.299999999999L755.639 4915.299999999999C748.208 4915.299999999999 742.163 4909.179999999999 742.163 4901.639999999999L742.163 4889.23C742.163 4888.54 742.715 4887.98 743.397 4887.98L751.312 4887.98C752.918 4885.5 752.847 4881.849999999999 751.063 4880.169999999999C750.5649999999999 4879.69 750.538 4878.899999999999 751.003 4878.399999999999C751.4670000000001 4877.8899999999985 752.248 4877.869999999999 752.7470000000001 4878.339999999998C755.9110000000001 4881.329999999998 755.368 4886.8899999999985 752.902 4890.009999999998C751.0830000000001 4892.309999999999 750.63 4896.379999999998 752.7470000000001 4898.379999999998C753.2450000000001 4898.859999999998 753.272 4899.649999999999 752.807 4900.149999999999C752.342 4900.659999999999 751.561 4900.6799999999985 751.063 4900.209999999999C749.595 4898.819999999999 748.8199999999999 4896.759999999999 748.879 4894.399999999999C748.913 4893.049999999998 749.222 4891.699999999999 749.76 4890.479999999999L744.63 4890.479999999999L744.63 4901.6399999999985C744.63 4907.799999999998 749.569 4912.799999999998 755.639 4912.799999999998L762.405 4912.799999999998C768.475 4912.799999999998 773.413 4907.799999999998 773.413 4901.6399999999985L773.413 4890.479999999999L764.135 4890.479999999999C763.453 4890.479999999999 762.901 4889.919999999998 762.901 4889.229999999999C762.901 4888.539999999999 763.453 4887.979999999999 764.135 4887.979999999999L774.6469999999999 4887.979999999999C775.329 4887.979999999999 775.881 4888.539999999999 775.881 4889.229999999999L775.881 4891.379999999998L777.846 4891.379999999998C781.239 4891.379999999998 784 4894.169999999998 784 4897.609999999998ZM755.586 4894.4C755.64 4892.23 756.404 4890.07 757.682 4888.45C759.6270000000001 4885.99 759.6700000000001 4881.96 757.769 4880.17C757.271 4879.7 757.244 4878.9 757.7090000000001 4878.4C758.1740000000001 4877.889999999999 758.955 4877.87 759.4530000000001 4878.339999999999C762.618 4881.329999999999 762.075 4886.889999999999 759.6080000000001 4890.009999999999C757.7900000000001 4892.3099999999995 757.3370000000001 4896.379999999999 759.4530000000001 4898.379999999999C759.9510000000001 4898.859999999999 759.9780000000001 4899.65 759.513 4900.15C759.27 4900.42 758.941 4900.549999999999 758.611 4900.549999999999C758.309 4900.549999999999 758.007 4900.44 757.769 4900.209999999999C756.302 4898.819999999999 755.526 4896.759999999999 755.586 4894.399999999999ZM782.043 4920.75C782.043 4921.44 781.491 4922 780.809 4922L737.2339999999999 4922C736.5529999999999 4922 735.9999999999999 4921.44 735.9999999999999 4920.75C735.9999999999999 4920.06 736.5529999999999 4919.5 737.2339999999999 4919.5L780.809 4919.5C781.491 4919.5 782.043 4920.06 782.043 4920.75ZM781.532 4897.61C781.532 4895.549999999999 779.878 4893.88 777.846 4893.88L775.881 4893.88L775.881 4903.75L777.846 4903.75C779.878 4903.75 781.532 4902.07 781.532 4900.01Z " fill="#000000" fill-opacity="1" transform="matrix(1,0,0,1,-736,-4878)"></path><path id="SvgjsPath1049" d="M784 4897.61L784 4900.009999999999C784 4903.449999999999 781.239 4906.249999999999 777.846 4906.249999999999L775.091 4906.249999999999C773.221 4911.5199999999995 768.24 4915.299999999999 762.405 4915.299999999999L755.639 4915.299999999999C748.208 4915.299999999999 742.163 4909.179999999999 742.163 4901.639999999999L742.163 4889.23C742.163 4888.54 742.715 4887.98 743.397 4887.98L751.312 4887.98C752.918 4885.5 752.847 4881.849999999999 751.063 4880.169999999999C750.5649999999999 4879.69 750.538 4878.899999999999 751.003 4878.399999999999C751.4670000000001 4877.8899999999985 752.248 4877.869999999999 752.7470000000001 4878.339999999998C755.9110000000001 4881.329999999998 755.368 4886.8899999999985 752.902 4890.009999999998C751.0830000000001 4892.309999999999 750.63 4896.379999999998 752.7470000000001 4898.379999999998C753.2450000000001 4898.859999999998 753.272 4899.649999999999 752.807 4900.149999999999C752.342 4900.659999999999 751.561 4900.6799999999985 751.063 4900.209999999999C749.595 4898.819999999999 748.8199999999999 4896.759999999999 748.879 4894.399999999999C748.913 4893.049999999998 749.222 4891.699999999999 749.76 4890.479999999999L744.63 4890.479999999999L744.63 4901.6399999999985C744.63 4907.799999999998 749.569 4912.799999999998 755.639 4912.799999999998L762.405 4912.799999999998C768.475 4912.799999999998 773.413 4907.799999999998 773.413 4901.6399999999985L773.413 4890.479999999999L764.135 4890.479999999999C763.453 4890.479999999999 762.901 4889.919999999998 762.901 4889.229999999999C762.901 4888.539999999999 763.453 4887.979999999999 764.135 4887.979999999999L774.6469999999999 4887.979999999999C775.329 4887.979999999999 775.881 4888.539999999999 775.881 4889.229999999999L775.881 4891.379999999998L777.846 4891.379999999998C781.239 4891.379999999998 784 4894.169999999998 784 4897.609999999998ZM755.586 4894.4C755.64 4892.23 756.404 4890.07 757.682 4888.45C759.6270000000001 4885.99 759.6700000000001 4881.96 757.769 4880.17C757.271 4879.7 757.244 4878.9 757.7090000000001 4878.4C758.1740000000001 4877.889999999999 758.955 4877.87 759.4530000000001 4878.339999999999C762.618 4881.329999999999 762.075 4886.889999999999 759.6080000000001 4890.009999999999C757.7900000000001 4892.3099999999995 757.3370000000001 4896.379999999999 759.4530000000001 4898.379999999999C759.9510000000001 4898.859999999999 759.9780000000001 4899.65 759.513 4900.15C759.27 4900.42 758.941 4900.549999999999 758.611 4900.549999999999C758.309 4900.549999999999 758.007 4900.44 757.769 4900.209999999999C756.302 4898.819999999999 755.526 4896.759999999999 755.586 4894.399999999999ZM782.043 4920.75C782.043 4921.44 781.491 4922 780.809 4922L737.2339999999999 4922C736.5529999999999 4922 735.9999999999999 4921.44 735.9999999999999 4920.75C735.9999999999999 4920.06 736.5529999999999 4919.5 737.2339999999999 4919.5L780.809 4919.5C781.491 4919.5 782.043 4920.06 782.043 4920.75ZM781.532 4897.61C781.532 4895.549999999999 779.878 4893.88 777.846 4893.88L775.881 4893.88L775.881 4903.75L777.846 4903.75C779.878 4903.75 781.532 4902.07 781.532 4900.01Z " fill="#c7b299" fill-opacity="1" transform="matrix(1,0,0,1,-736,-4878)"></path></svg>