<svg id="SvgjsSvg1050" xmlns="http://www.w3.org/2000/svg" version="1.1" xmlns:xlink="http://www.w3.org/1999/xlink" xmlns:svgjs="http://svgjs.com/svgjs" width="44" height="44" viewBox="0 0 44 44"><title>icon</title><desc>Created with Avocode.</desc><defs id="SvgjsDefs1051"></defs><path id="SvgjsPath1052" d="M960.999 4878C948.852 4878 939.003 4886.62 939.003 4897.25C939.003 4903.32 942.2270000000001 4908.73 947.2520000000001 4912.26L947.2520000000001 4922L956.8870000000001 4916.15C958.221 4916.37 959.5930000000001 4916.5 960.999 4916.5C973.148 4916.5 982.995 4907.88 982.995 4897.25C982.995 4886.62 973.148 4878 960.999 4878ZM971.997 4894.5C971.997 4895.26 971.382 4895.87 970.622 4895.87L951.376 4895.87C950.617 4895.87 950.001 4895.26 950.001 4894.5C950.001 4893.74 950.617 4893.13 951.376 4893.13L970.622 4893.13C971.382 4893.13 971.997 4893.74 971.997 4894.5ZM969.248 4902.75C969.248 4903.51 968.6320000000001 4904.12 967.873 4904.12L954.1260000000001 4904.12C953.3670000000001 4904.12 952.7510000000001 4903.51 952.7510000000001 4902.75C952.7510000000001 4901.99 953.3670000000001 4901.37 954.1260000000001 4901.37L967.873 4901.37C968.6320000000001 4901.37 969.248 4901.99 969.248 4902.75ZM960.999 4913.75C959.393 4913.75 957.8430000000001 4913.56 956.3530000000001 4913.24L949.8800000000001 4917.13L949.9670000000001 4910.76C945.0050000000001 4907.77 941.753 4902.84 941.753 4897.25C941.753 4888.14 950.37 4880.75 960.999 4880.75C971.629 4880.75 980.246 4888.14 980.246 4897.25C980.246 4906.36 971.629 4913.75 960.999 4913.75Z " fill="#000000" fill-opacity="1" transform="matrix(1,0,0,1,-939,-4878)"></path><path id="SvgjsPath1053" d="M960.999 4878C948.852 4878 939.003 4886.62 939.003 4897.25C939.003 4903.32 942.2270000000001 4908.73 947.2520000000001 4912.26L947.2520000000001 4922L956.8870000000001 4916.15C958.221 4916.37 959.5930000000001 4916.5 960.999 4916.5C973.148 4916.5 982.995 4907.88 982.995 4897.25C982.995 4886.62 973.148 4878 960.999 4878ZM971.997 4894.5C971.997 4895.26 971.382 4895.87 970.622 4895.87L951.376 4895.87C950.617 4895.87 950.001 4895.26 950.001 4894.5C950.001 4893.74 950.617 4893.13 951.376 4893.13L970.622 4893.13C971.382 4893.13 971.997 4893.74 971.997 4894.5ZM969.248 4902.75C969.248 4903.51 968.6320000000001 4904.12 967.873 4904.12L954.1260000000001 4904.12C953.3670000000001 4904.12 952.7510000000001 4903.51 952.7510000000001 4902.75C952.7510000000001 4901.99 953.3670000000001 4901.37 954.1260000000001 4901.37L967.873 4901.37C968.6320000000001 4901.37 969.248 4901.99 969.248 4902.75ZM960.999 4913.75C959.393 4913.75 957.8430000000001 4913.56 956.3530000000001 4913.24L949.8800000000001 4917.13L949.9670000000001 4910.76C945.0050000000001 4907.77 941.753 4902.84 941.753 4897.25C941.753 4888.14 950.37 4880.75 960.999 4880.75C971.629 4880.75 980.246 4888.14 980.246 4897.25C980.246 4906.36 971.629 4913.75 960.999 4913.75Z " fill="#c7b299" fill-opacity="1" transform="matrix(1,0,0,1,-939,-4878)"></path></svg>