<svg id="SvgjsSvg1021" xmlns="http://www.w3.org/2000/svg" version="1.1" xmlns:xlink="http://www.w3.org/1999/xlink" xmlns:svgjs="http://svgjs.com/svgjs" width="49" height="49" viewBox="0 0 49 49"><title>icon</title><desc>Created with Avocode.</desc><defs id="SvgjsDefs1022"></defs><path id="SvgjsPath1023" d="M534.668 1121.47C534.043 1120.8500000000001 533.039 1120.8500000000001 532.42 1121.47L518.573 1135.31L499.106 1143.8899999999999L496.10699999999997 1140.8899999999999L504.683 1121.4199999999998L518.527 1107.58C519.148 1106.9499999999998 519.148 1105.9499999999998 518.527 1105.33C517.904 1104.71 516.898 1104.71 516.279 1105.33L502.01099999999997 1119.59L487.534 1152.4599999999998L520.402 1137.9899999999998L534.668 1123.7199999999998C535.289 1123.1 535.289 1122.0899999999997 534.668 1121.4699999999998ZM511.015 1128.99C511.32599999999996 1129.29 511.734 1129.45 512.14 1129.45C512.549 1129.45 512.955 1129.29 513.265 1128.99L526.598 1115.65C527.2189999999999 1115.0300000000002 527.2189999999999 1114.02 526.598 1113.4C525.9739999999999 1112.7800000000002 524.9699999999999 1112.7800000000002 524.348 1113.4L511.01499999999993 1126.73C510.39399999999995 1127.35 510.39399999999995 1128.3600000000001 511.01499999999993 1128.99ZM514.495 1132.47C514.805 1132.77 515.211 1132.93 515.62 1132.93C516.028 1132.93 516.434 1132.77 516.745 1132.47L530.077 1119.13C530.7 1118.5100000000002 530.7 1117.5100000000002 530.077 1116.88C529.454 1116.2600000000002 528.45 1116.2600000000002 527.827 1116.88L514.495 1130.22C513.875 1130.84 513.875 1131.84 514.495 1132.47ZM507.534 1125.5C507.84499999999997 1125.81 508.253 1125.97 508.659 1125.97C509.065 1125.97 509.473 1125.81 509.784 1125.5L523.117 1112.17C523.7389999999999 1111.5500000000002 523.7389999999999 1110.54 523.117 1109.92C522.495 1109.3000000000002 521.49 1109.3000000000002 520.867 1109.92L507.53399999999993 1123.25C506.91399999999993 1123.87 506.91399999999993 1124.88 507.53399999999993 1125.5Z " fill="#000000" fill-opacity="1" transform="matrix(1,0,0,1,-487,-1104)"></path><path id="SvgjsPath1024" d="M534.668 1121.47C534.043 1120.8500000000001 533.039 1120.8500000000001 532.42 1121.47L518.573 1135.31L499.106 1143.8899999999999L496.10699999999997 1140.8899999999999L504.683 1121.4199999999998L518.527 1107.58C519.148 1106.9499999999998 519.148 1105.9499999999998 518.527 1105.33C517.904 1104.71 516.898 1104.71 516.279 1105.33L502.01099999999997 1119.59L487.534 1152.4599999999998L520.402 1137.9899999999998L534.668 1123.7199999999998C535.289 1123.1 535.289 1122.0899999999997 534.668 1121.4699999999998ZM511.015 1128.99C511.32599999999996 1129.29 511.734 1129.45 512.14 1129.45C512.549 1129.45 512.955 1129.29 513.265 1128.99L526.598 1115.65C527.2189999999999 1115.0300000000002 527.2189999999999 1114.02 526.598 1113.4C525.9739999999999 1112.7800000000002 524.9699999999999 1112.7800000000002 524.348 1113.4L511.01499999999993 1126.73C510.39399999999995 1127.35 510.39399999999995 1128.3600000000001 511.01499999999993 1128.99ZM514.495 1132.47C514.805 1132.77 515.211 1132.93 515.62 1132.93C516.028 1132.93 516.434 1132.77 516.745 1132.47L530.077 1119.13C530.7 1118.5100000000002 530.7 1117.5100000000002 530.077 1116.88C529.454 1116.2600000000002 528.45 1116.2600000000002 527.827 1116.88L514.495 1130.22C513.875 1130.84 513.875 1131.84 514.495 1132.47ZM507.534 1125.5C507.84499999999997 1125.81 508.253 1125.97 508.659 1125.97C509.065 1125.97 509.473 1125.81 509.784 1125.5L523.117 1112.17C523.7389999999999 1111.5500000000002 523.7389999999999 1110.54 523.117 1109.92C522.495 1109.3000000000002 521.49 1109.3000000000002 520.867 1109.92L507.53399999999993 1123.25C506.91399999999993 1123.87 506.91399999999993 1124.88 507.53399999999993 1125.5Z " fill="#555555" fill-opacity="1" transform="matrix(1,0,0,1,-487,-1104)"></path></svg>