<svg id="SvgjsSvg1029" xmlns="http://www.w3.org/2000/svg" version="1.1" xmlns:xlink="http://www.w3.org/1999/xlink" xmlns:svgjs="http://svgjs.com/svgjs" width="44" height="44" viewBox="0 0 44 44"><title>icon</title><desc>Created with Avocode.</desc><defs id="SvgjsDefs1030"></defs><path id="SvgjsPath1031" d="M1132.93 1129.85C1132.93 1128.23 1131.76 1126.5 1130.3200000000002 1125.99C1128.88 1125.48 1127.4900000000002 1124.24 1127.0800000000002 1123.25C1126.68 1122.27 1126.7800000000002 1120.4 1127.44 1119.02C1128.0900000000001 1117.6399999999999 1127.69 1115.59 1126.55 1114.44C1125.3999999999999 1113.3 1123.36 1112.9 1121.98 1113.56C1120.6 1114.21 1118.73 1114.32 1117.75 1113.9099999999999C1116.76 1113.5099999999998 1115.52 1112.11 1115.01 1110.6699999999998C1114.49 1109.2299999999998 1112.76 1108.07 1111.14 1108.07C1109.5200000000002 1108.07 1107.7900000000002 1109.23 1107.2800000000002 1110.6699999999998C1106.7700000000002 1112.11 1105.5200000000002 1113.5099999999998 1104.5400000000002 1113.9099999999999C1103.5600000000002 1114.32 1101.6900000000003 1114.2099999999998 1100.3100000000002 1113.56C1098.93 1112.8999999999999 1096.88 1113.3 1095.7400000000002 1114.44C1094.5900000000001 1115.5900000000001 1094.1900000000003 1117.64 1094.8500000000001 1119.02C1095.5100000000002 1120.4 1095.6100000000001 1122.27 1095.2 1123.25C1094.8 1124.23 1093.41 1125.48 1091.97 1125.99C1090.53 1126.5 1089.3600000000001 1128.23 1089.3600000000001 1129.85C1089.3600000000001 1131.4699999999998 1090.5300000000002 1133.1999999999998 1091.97 1133.7099999999998C1093.41 1134.2199999999998 1094.8 1135.4699999999998 1095.21 1136.4499999999998C1095.6100000000001 1137.4299999999998 1095.51 1139.2999999999997 1094.8500000000001 1140.6799999999998C1094.19 1142.06 1094.5900000000001 1144.11 1095.7400000000002 1145.2599999999998C1096.8800000000003 1146.3999999999999 1098.9300000000003 1146.7999999999997 1100.3100000000002 1146.1399999999999C1101.6900000000003 1145.4899999999998 1103.5600000000002 1145.3799999999999 1104.5400000000002 1145.79C1105.5200000000002 1146.2 1106.7700000000002 1147.59 1107.2800000000002 1149.03C1107.7900000000002 1150.47 1109.5200000000002 1151.6299999999999 1111.14 1151.6299999999999C1112.76 1151.6299999999999 1114.49 1150.4699999999998 1115.01 1149.03C1115.52 1147.59 1116.76 1146.2 1117.74 1145.79C1118.73 1145.3799999999999 1120.6 1145.49 1121.98 1146.1399999999999C1123.3600000000001 1146.8 1125.4 1146.3999999999999 1126.55 1145.2599999999998C1127.69 1144.1099999999997 1128.09 1142.0599999999997 1127.44 1140.6799999999998C1126.78 1139.2999999999997 1126.67 1137.4299999999998 1127.0800000000002 1136.4499999999998C1127.4800000000002 1135.4699999999998 1128.88 1134.2199999999998 1130.3200000000002 1133.7099999999998C1131.7600000000002 1133.1999999999998 1132.93 1131.4699999999998 1132.93 1129.85ZM1111.14 1137.84C1106.72 1137.84 1103.15 1134.27 1103.15 1129.86C1103.15 1125.4399999999998 1106.72 1121.87 1111.14 1121.87C1115.5500000000002 1121.87 1119.13 1125.4399999999998 1119.13 1129.86C1119.13 1134.27 1115.5500000000002 1137.84 1111.14 1137.84Z " fill="#000000" fill-opacity="1" transform="matrix(1,0,0,1,-1089,-1108)"></path><path id="SvgjsPath1032" d="M1132.93 1129.85C1132.93 1128.23 1131.76 1126.5 1130.3200000000002 1125.99C1128.88 1125.48 1127.4900000000002 1124.24 1127.0800000000002 1123.25C1126.68 1122.27 1126.7800000000002 1120.4 1127.44 1119.02C1128.0900000000001 1117.6399999999999 1127.69 1115.59 1126.55 1114.44C1125.3999999999999 1113.3 1123.36 1112.9 1121.98 1113.56C1120.6 1114.21 1118.73 1114.32 1117.75 1113.9099999999999C1116.76 1113.5099999999998 1115.52 1112.11 1115.01 1110.6699999999998C1114.49 1109.2299999999998 1112.76 1108.07 1111.14 1108.07C1109.5200000000002 1108.07 1107.7900000000002 1109.23 1107.2800000000002 1110.6699999999998C1106.7700000000002 1112.11 1105.5200000000002 1113.5099999999998 1104.5400000000002 1113.9099999999999C1103.5600000000002 1114.32 1101.6900000000003 1114.2099999999998 1100.3100000000002 1113.56C1098.93 1112.8999999999999 1096.88 1113.3 1095.7400000000002 1114.44C1094.5900000000001 1115.5900000000001 1094.1900000000003 1117.64 1094.8500000000001 1119.02C1095.5100000000002 1120.4 1095.6100000000001 1122.27 1095.2 1123.25C1094.8 1124.23 1093.41 1125.48 1091.97 1125.99C1090.53 1126.5 1089.3600000000001 1128.23 1089.3600000000001 1129.85C1089.3600000000001 1131.4699999999998 1090.5300000000002 1133.1999999999998 1091.97 1133.7099999999998C1093.41 1134.2199999999998 1094.8 1135.4699999999998 1095.21 1136.4499999999998C1095.6100000000001 1137.4299999999998 1095.51 1139.2999999999997 1094.8500000000001 1140.6799999999998C1094.19 1142.06 1094.5900000000001 1144.11 1095.7400000000002 1145.2599999999998C1096.8800000000003 1146.3999999999999 1098.9300000000003 1146.7999999999997 1100.3100000000002 1146.1399999999999C1101.6900000000003 1145.4899999999998 1103.5600000000002 1145.3799999999999 1104.5400000000002 1145.79C1105.5200000000002 1146.2 1106.7700000000002 1147.59 1107.2800000000002 1149.03C1107.7900000000002 1150.47 1109.5200000000002 1151.6299999999999 1111.14 1151.6299999999999C1112.76 1151.6299999999999 1114.49 1150.4699999999998 1115.01 1149.03C1115.52 1147.59 1116.76 1146.2 1117.74 1145.79C1118.73 1145.3799999999999 1120.6 1145.49 1121.98 1146.1399999999999C1123.3600000000001 1146.8 1125.4 1146.3999999999999 1126.55 1145.2599999999998C1127.69 1144.1099999999997 1128.09 1142.0599999999997 1127.44 1140.6799999999998C1126.78 1139.2999999999997 1126.67 1137.4299999999998 1127.0800000000002 1136.4499999999998C1127.4800000000002 1135.4699999999998 1128.88 1134.2199999999998 1130.3200000000002 1133.7099999999998C1131.7600000000002 1133.1999999999998 1132.93 1131.4699999999998 1132.93 1129.85ZM1111.14 1137.84C1106.72 1137.84 1103.15 1134.27 1103.15 1129.86C1103.15 1125.4399999999998 1106.72 1121.87 1111.14 1121.87C1115.5500000000002 1121.87 1119.13 1125.4399999999998 1119.13 1129.86C1119.13 1134.27 1115.5500000000002 1137.84 1111.14 1137.84Z " fill="#555555" fill-opacity="1" transform="matrix(1,0,0,1,-1089,-1108)"></path></svg>