<svg id="SvgjsSvg1033" xmlns="http://www.w3.org/2000/svg" version="1.1" xmlns:xlink="http://www.w3.org/1999/xlink" xmlns:svgjs="http://svgjs.com/svgjs" width="52" height="36" viewBox="0 0 52 36"><title>icon</title><desc>Created with Avocode.</desc><defs id="SvgjsDefs1034"></defs><path id="SvgjsPath1035" d="M1397 1129.25C1398 1127.19 1400.47 1125.64 1402.74 1125.64L1428.95 1125.64L1428.95 1123.98C1428.95 1122.6200000000001 1427.8400000000001 1121.5 1426.49 1121.5L1415.67 1121.5L1415.67 1120.06C1415.67 1118 1414.02 1116.33 1411.99 1116.33L1405.7 1116.33C1404.72 1116.33 1403.79 1116.72 1403.0900000000001 1117.4299999999998C1402.39 1118.1299999999999 1402.0100000000002 1119.06 1402.0100000000002 1120.06L1402.0100000000002 1121.5L1391.2000000000003 1121.5C1389.8400000000004 1121.5 1388.7400000000002 1122.62 1388.7400000000002 1123.98L1388.7400000000002 1146.15ZM1404.47 1120.06C1404.47 1119.73 1404.6000000000001 1119.4199999999998 1404.83 1119.1799999999998C1405.06 1118.9399999999998 1405.37 1118.82 1405.6999999999998 1118.82L1411.9899999999998 1118.82C1412.6699999999998 1118.82 1413.2199999999998 1119.37 1413.2199999999998 1120.06L1413.2199999999998 1121.5L1404.4699999999998 1121.5ZM1439.41 1130.34C1440.01 1129.12 1439.39 1128.12 1438.0400000000002 1128.12L1402.7400000000002 1128.12C1401.3900000000003 1128.12 1399.8000000000002 1129.12 1399.2000000000003 1130.34L1389.7100000000003 1149.76C1389.1100000000004 1150.98 1389.7300000000002 1151.98 1391.0800000000002 1151.98L1426.38 1151.98C1427.73 1151.98 1429.3300000000002 1150.98 1429.92 1149.76Z " fill="#000000" fill-opacity="1" transform="matrix(1,0,0,1,-1388,-1116)"></path><path id="SvgjsPath1036" d="M1397 1129.25C1398 1127.19 1400.47 1125.64 1402.74 1125.64L1428.95 1125.64L1428.95 1123.98C1428.95 1122.6200000000001 1427.8400000000001 1121.5 1426.49 1121.5L1415.67 1121.5L1415.67 1120.06C1415.67 1118 1414.02 1116.33 1411.99 1116.33L1405.7 1116.33C1404.72 1116.33 1403.79 1116.72 1403.0900000000001 1117.4299999999998C1402.39 1118.1299999999999 1402.0100000000002 1119.06 1402.0100000000002 1120.06L1402.0100000000002 1121.5L1391.2000000000003 1121.5C1389.8400000000004 1121.5 1388.7400000000002 1122.62 1388.7400000000002 1123.98L1388.7400000000002 1146.15ZM1404.47 1120.06C1404.47 1119.73 1404.6000000000001 1119.4199999999998 1404.83 1119.1799999999998C1405.06 1118.9399999999998 1405.37 1118.82 1405.6999999999998 1118.82L1411.9899999999998 1118.82C1412.6699999999998 1118.82 1413.2199999999998 1119.37 1413.2199999999998 1120.06L1413.2199999999998 1121.5L1404.4699999999998 1121.5ZM1439.41 1130.34C1440.01 1129.12 1439.39 1128.12 1438.0400000000002 1128.12L1402.7400000000002 1128.12C1401.3900000000003 1128.12 1399.8000000000002 1129.12 1399.2000000000003 1130.34L1389.7100000000003 1149.76C1389.1100000000004 1150.98 1389.7300000000002 1151.98 1391.0800000000002 1151.98L1426.38 1151.98C1427.73 1151.98 1429.3300000000002 1150.98 1429.92 1149.76Z " fill="#555555" fill-opacity="1" transform="matrix(1,0,0,1,-1388,-1116)"></path></svg>