<svg id="SvgjsSvg1025" xmlns="http://www.w3.org/2000/svg" version="1.1" xmlns:xlink="http://www.w3.org/1999/xlink" xmlns:svgjs="http://svgjs.com/svgjs" width="44" height="40" viewBox="0 0 44 40"><title>icon</title><desc>Created with Avocode.</desc><defs id="SvgjsDefs1026"></defs><path id="SvgjsPath1027" d="M811.851 1113.11L790.414 1124.6699999999998L811.851 1136.2299999999998L833.287 1124.6699999999998ZM811.851 1139.96L794.399 1130.55L790.414 1132.7L811.851 1144.25L833.287 1132.7L829.302 1130.55ZM811.851 1147.98L794.399 1138.57L790.414 1140.72L811.851 1152.28L833.287 1140.72L829.302 1138.57Z " fill="#000000" fill-opacity="1" transform="matrix(1,0,0,1,-790,-1113)"></path><path id="SvgjsPath1028" d="M811.851 1113.11L790.414 1124.6699999999998L811.851 1136.2299999999998L833.287 1124.6699999999998ZM811.851 1139.96L794.399 1130.55L790.414 1132.7L811.851 1144.25L833.287 1132.7L829.302 1130.55ZM811.851 1147.98L794.399 1138.57L790.414 1140.72L811.851 1152.28L833.287 1140.72L829.302 1138.57Z " fill="#c7b299" fill-opacity="1" transform="matrix(1,0,0,1,-790,-1113)"></path></svg>